<?xml version="1.0" encoding="utf-8"?>
<!-- Generator: Adobe Illustrator 20.1.0, SVG Export Plug-In . SVG Version: 6.00 Build 0)  -->
<svg version="1.1" id="Layer_1" xmlns="http://www.w3.org/2000/svg" xmlns:xlink="http://www.w3.org/1999/xlink" x="0px" y="0px"
	 viewBox="0 0 882 768" style="enable-background:new 0 0 882 768;" xml:space="preserve">
<style type="text/css">
	.st0{clip-path:url(#SVGID_2_);fill:#FFCCC0;}
	.st1{clip-path:url(#SVGID_2_);fill:#42356F;}
	.st2{clip-path:url(#SVGID_2_);fill:#DB929B;}
	.st3{clip-path:url(#SVGID_2_);fill:#3F356C;}
	.st4{clip-path:url(#SVGID_2_);}
	.st5{fill:#332658;}
	.st6{opacity:0.4;clip-path:url(#SVGID_2_);fill:#FFFFFF;}
	.st7{opacity:0.5;clip-path:url(#SVGID_2_);}
	.st8{fill:#111213;}
	.st9{clip-path:url(#SVGID_2_);fill:#332658;}
	.st10{clip-path:url(#SVGID_2_);fill:none;}
	.st11{clip-path:url(#SVGID_2_);fill:#F9D8D4;stroke:#E2ACB5;stroke-width:2;stroke-miterlimit:10;}
	.st12{opacity:0.6;clip-path:url(#SVGID_2_);fill:#FFFFFF;}
	.st13{fill:#DB929B;}
	.st14{fill:#E2ACB5;}
	.st15{clip-path:url(#SVGID_2_);fill:#FFFFFF;}
	.st16{clip-path:url(#SVGID_2_);fill:#4E2B2A;}
	.st17{clip-path:url(#SVGID_2_);fill:#303039;}
	.st18{clip-path:url(#SVGID_2_);fill:#F7A8AE;}
	.st19{clip-path:url(#SVGID_2_);fill:#CF7287;}
	.st20{clip-path:url(#SVGID_2_);fill:#14121C;}
	.st21{clip-path:url(#SVGID_2_);fill:none;stroke:#231F20;stroke-miterlimit:10;}
	.st22{clip-path:url(#SVGID_2_);fill:none;stroke:#734B5F;stroke-miterlimit:10;}
</style>
<g>
	<defs>
		<path id="SVGID_1_" d="M663.7,453c0,121-98.1,219.1-219.1,219.1S225.4,574.1,225.4,453S332.9,44,454,44S663.7,332,663.7,453z"/>
	</defs>
	<clipPath id="SVGID_2_">
		<use xlink:href="#SVGID_1_"  style="overflow:visible;"/>
	</clipPath>
	<polyline class="st0" points="502.8,491.8 502.6,455.6 388.2,457.2 386.2,491.8 396,527.5 443.8,556.7 498.2,527.5 	"/>
	<path class="st1" d="M386.3,491.8c0,0-2.2,19.8-2.2,19.8c-0.5,4.8-20.6,12-24,13.3c-17.3,7-36.9,9.8-55.1,14.1
		c-44.5,10.5-46.7,64.5-51.7,101.2c-0.4,2.9-4.2,34.6-5.5,34.6c19-0.4,37.8,0,56.8,0c47,0,93.9,0,140.9,0V549.4c0,0-15.8,1.3-41.5-8
		C398.9,537.4,386.3,491.8,386.3,491.8z"/>
	<path class="st2" d="M389.7,471.3c1.6,15.5,21.7,32.4,41.3,38.9c16.4,5.5,50.6,14.8,54.1,32.5l16.2-24.1c0,0,1.7-38.7,1.3-63.1"/>
	<path class="st3" d="M502.8,491.8c0,0,2.2,19.8,2.2,19.8c0.5,4.8,20.6,12,24,13.3c17.3,7,36.9,9.8,55.1,14.1
		c44.5,10.5,46.7,64.5,51.7,101.2c0.4,2.9,4.2,34.6,5.5,34.6c-19-0.4-37.8,0-56.8,0c-47,0-93.9,0-140.9,0V549.4c0,0,15.8,1.3,41.5-8
		C490.2,537.4,502.8,491.8,502.8,491.8z"/>
	<g class="st4">
		<path class="st5" d="M476.8,520.3c0,0,27.5,35.7-2.2,68.2c9-0.7,35.3-18.7,47.4-36.6s18.6-13.2,36.5-9.2c17.9,4,17.2,0,17.2,0
			l-28.4-9.3c0,0-36.5-10.1-44.5-23.2"/>
		<path class="st5" d="M576.4,674.8c0,0-0.2-28.2,4.4-53.2c-0.4,2.6-12.3,32.9-9.7,53.2"/>
		<path class="st5" d="M378.7,519.9c0,0-1.7,38.1,11.2,57.4c13,19.2,24.6,65,22.1,70.3c0,0,3.9-48.4-6.6-67
			C394.9,562,383,559.3,378.7,519.9z"/>
		<path class="st5" d="M312.8,674.8c0,0,0.2-28.2-4.4-53.2c0.4,2.6,12.3,32.9,9.7,53.2"/>
	</g>
	<path class="st1" d="M444.2,549.4l16.2-15.9l24.7,29.6c0,0,27.9-33.2,17.7-71.3c0,0-12.7,29-44.1,35.7L444.2,549.4z"/>
	<path class="st1" d="M444.9,549.4l-16.2-15.9l-24.7,29.6c0,0-27.9-33.2-17.7-71.3c0,0,12.7,29,44.1,35.7L444.9,549.4z"/>
	<path class="st6" d="M371.7,524.2c-4.2,4.7-16.5,7-22.1,8.9c-13.2,4.3-27.4,4.7-40.8,8.6c-6.5,1.9-13.5,4.4-18.7,9.1
		c-5.2,4.7-6.3,12.4-11.4,17.2c6.6-6.3,13.1-13.5,21.5-17.3c9.6-4.3,20.7-4.8,30.9-7.1C345.8,540.3,361.5,535.6,371.7,524.2z"/>
	<g class="st7">
		<path class="st8" d="M416.1,561c0,0,0.9,0.1,2.5,0.3c0.8,0.1,1.7,0.3,2.8,0.5c1.1,0.2,2.3,0.3,3.7,0.5c1.3,0.2,2.8,0.4,4.3,0.6
			c1.5,0.2,3.2,0.3,4.8,0.5c1.7,0.2,3.4,0.2,5.2,0.4c1.8,0.1,3.5,0.1,5.3,0.2c1.8,0,3.6,0,5.3,0c1.7-0.1,3.5-0.1,5.1-0.2
			c0.8-0.1,1.7-0.1,2.5-0.2c0.8-0.1,1.6-0.2,2.3-0.2c1.5-0.1,3-0.4,4.3-0.5c1.3-0.2,2.5-0.4,3.6-0.6c1.1-0.2,2-0.4,2.8-0.6
			c0.8-0.2,1.4-0.3,1.8-0.4c0.4-0.1,0.6-0.2,0.6-0.2s-0.8,0.5-2.2,1.2c-0.7,0.3-1.6,0.7-2.7,1.1c-1,0.4-2.2,0.8-3.6,1.2
			c-1.3,0.3-2.8,0.8-4.3,1.1c-0.8,0.2-1.6,0.3-2.4,0.5c-0.8,0.1-1.7,0.2-2.5,0.4c-0.9,0.1-1.7,0.2-2.6,0.3c-0.9,0.1-1.8,0.2-2.7,0.2
			c-1.8,0.1-3.6,0.1-5.5,0.1c-1.8-0.1-3.7-0.2-5.5-0.3c-1.8-0.2-3.6-0.4-5.3-0.7c-1.7-0.3-3.3-0.6-4.9-0.9c-1.5-0.3-3-0.8-4.3-1.1
			c-1.3-0.3-2.5-0.7-3.6-1.1c-1-0.4-1.9-0.7-2.7-1C416.9,561.3,416.1,561,416.1,561z"/>
	</g>
	<polyline class="st9" points="444.9,549.4 429.1,530.5 403.9,563.1 	"/>
	<polyline class="st9" points="444.2,549.4 460,530.5 485.2,563.1 	"/>
	<path class="st10" d="M663.7,453c0,121-98.1,219.1-219.1,219.1S225.4,574.1,225.4,453s97.2-332,218.2-332S663.7,332,663.7,453z"/>
	<path class="st11" d="M452.8,505.3c0,0-22.5,3.5-48-10s-66.5-49-72-115c0,0-13.5-4.5-18.5-21s-13-36-11.5-51.5s8-21.5,14.5-10
		c6-40-10.2-110,60.4-135s160.1-4,173.1,44.5s10.5,104,9.5,117c-2.5,32.1-9.1,65.8-21.2,95.6c-6.5,16.2-17,30.1-26.8,44.4
		C502.3,478.8,485.8,505.3,452.8,505.3z"/>
	<path class="st12" d="M466.5,402l-5.8-81c0,0-4.2,21-5.8,34s-4.8,16-10.2,19.6s-9.8,0.6-12.9,7.6s3.2,11,10.9,11.8
		S457,406.3,466.5,402z"/>
	<path class="st12" d="M378.3,476.4c0,0-29.1-24.6-32.6-96.1s-15.5-179,40-196c-20-5-32.5,0-32.5,0s-32.8,41.5-31.9,88.5
		s6.5,48.2,6.5,48.2l4.8,63.2C332.7,384.3,340.9,447.9,378.3,476.4z"/>
	<g class="st4">
		<g>
			<path class="st13" d="M475.2,339.2c0,0,3.2-26.8,17.7-31.8c0,0-4.2,4.5-4,11.5c0.2-3,29.2-20.2,46.8,6.4
				C535.1,324.4,481.2,319,475.2,339.2z"/>
			<g>
				<path class="st13" d="M313.2,306.5c0,0-2.8-4-5.2-4s-2.5,16.5,2.6,28.5C310.6,331,306.7,303.3,313.2,306.5z"/>
				<path class="st13" d="M322.7,329c0,0,0,16.1,3.8,23.8c-0.6-1.3-9.2-4.8-10.2-18.5l5.1,10C321.4,344.3,318.5,335.9,322.7,329z"/>
				<path class="st13" d="M331.2,369l1.5,11.2c0,0-6.2-2.3-9.7-6.3C323.1,374,331,375.3,331.2,369z"/>
				<path class="st13" d="M463.6,410.3c-6,0.2-11-4.4-14.9-8.1c-2.6-2.5-5.7-2.8-9.2-3.9c-9.8-3-16-4-13.8-15.5c0,0-5.8,7.2,4.8,16
					c4.2,2.2,10,3.3,15,10.3s19.2,10.5,27,4.7s4-9,12.2-12.5s11.5-11.5,6.8-21c0,0,2,13-5.5,16.2c-3.5,1.7-5,2.2-9.5,6
					c-3.8,3.1-7.3,7.4-12.5,7.8C463.8,410.3,463.7,410.3,463.6,410.3z"/>
				<path class="st14" d="M493.7,487.8c0,0,31.5-41.5,39-67c11.4-38.9,22.1-77.4,20.4-118.3c-0.9-22.9-8.2-44.8-10.4-67.5
					c-1.3-13.9-4.6-27.5-14.5-37.9c-7.8-8.1-19.6-12.6-30.5-14.9c23.5-10.4,49.2,2.8,49.2,2.8s16.8,69.9,16.8,69.9
					c0.7,2.9-0.4,7.3-0.6,10.3c-0.4,7.7-0.9,15.4-1.3,23.1c-1.1,22.1-2.7,44.2-5.9,66c-3,20.6-6.3,43.6-15.6,62.4
					c-11.2,22.6-13.4,26.5-20.8,37.1C512.2,464.3,496.2,485.2,493.7,487.8z"/>
			</g>
		</g>
	</g>
	<path class="st2" d="M489.7,377.3c0,0-4.8-2-7.2,0l-2.8-13.5l5,10.9C484.7,374.7,487.9,373.1,489.7,377.3z"/>
	<path class="st2" d="M383.2,323.3l45,5.7c0,0,13,4.1,12.8,18.3c1.2-1.5,2-33.5-11.2-43.2c0,0,4.5,9.2,4.5,17
		C434.2,319.5,404.5,299.7,383.2,323.3z"/>
	<path class="st15" d="M428.2,329c0,0-16.2-21.9-38.5-5.2C389.7,323.8,406.6,336.5,428.2,329z"/>
	<path class="st16" d="M398.2,319.1c-0.6,1.3-1,2.7-1,4.2c0,1,0.1,1.9,0.4,2.8c0.1,2.2,11.1,8.7,16.4,2.6c1.1-1.5,1.7-3.4,1.7-5.4
		c0-1.6-0.4-3-1.1-4.3C410.1,317.3,404.5,316.7,398.2,319.1z"/>
	<path class="st15" d="M490.7,325.7c0,0,7.5-11.5,23-9.9c11.5,1,12.8,8.7,12.8,8.7S503.5,333.9,490.7,325.7z"/>
	<path class="st16" d="M516.5,321c0-2-0.7-3.8-1.9-5.2c-0.3,0-0.6-0.1-0.9-0.1c-4.8-0.5-8.8,0.3-12.1,1.5c-0.6,1.1-0.9,2.4-0.9,3.7
		c0,1.6,0.5,3.1,1.3,4.3c1.1,2.1,9.3,7.2,13.5-0.5C516.2,323.8,516.5,322.5,516.5,321z"/>
	<path class="st17" d="M491.6,299c-0.8-0.6-1-1.7,0.1-3.7c1.8-3.6,7.1-5.2,10.6-6c14-3.2,33-7,38.2-3.5s7.8,12,7.8,12
		s-9.2-4.8-19.8-3.5c-6.9,0.8-13.8,2-20.7,3.1c-3.4,0.6-6.9,1.1-10.3,1.7C495.5,299.5,492.8,299.9,491.6,299z"/>
	<path class="st17" d="M432.3,298.5c1.1-0.4,1.9-1.2,2.3-2.4c1.4-4.9-5.1-7.2-8.6-8c-14.2-3.2-30.7-5.1-44.2-3.7
		c-10.2,1.2-18.5,15.2-18.5,15.2s8.5-5.5,18.8-5.8c8.3-0.2,16.8,1.2,25,2.3c4.8,0.6,9.6,1.2,14.4,1.9
		C424.1,298.3,429.3,299.7,432.3,298.5z"/>
	<path class="st18" d="M464,424.4c-4.1,0.2-8.3-0.3-12.7-1.6c-9.2-2.8-26-5.8-46.2-2c0,0-5.5,2,0,9c3.8,4.9,6.5,10.4,10.9,14.9
		c11.9,12.2,31.3,18.5,48.1,15c4.8-1,10.3-3,14.5-5.8c7.8-5.3,13.1-13.2,18.8-20.5c1-1.3,12.1-13.6,6.7-14.4
		c-5.2-0.7-13.5-1.5-21.5,1.3C476.2,422.5,470.1,424.1,464,424.4z"/>
	<path class="st19" d="M414.2,424H407c0,0,8.8,21,48.5,20.5c15.2-1.5,34.2-2.5,40.8-20.5h-2.5c0,0-22.8,18.5-61.9,10.3L414.2,424z"
		/>
	<path class="st15" d="M486.5,425.8c-17.5,6.8-32.2,5.2-44.9,3.5c-12.6-1.8-27.4-5.2-27.4-5.2s2.5,6.1,6,8.6
		c17.2,12.2,49.5,8.6,59.5,5.1s14-13.8,14-13.8L486.5,425.8z"/>
	<path class="st20" d="M555.3,209.1c0,0,11.4-27.8-7.1-48.8c0,0,8.8,16,4.9,27.8c0.9-5.1-6.9-31.2-31.4-49.8c0,0,3,6,2.5,10
		c0,0-24-41-96-49c0,0,7.8,2,13.4,9c-2.1-2.3-31.9-11.5-62.9,1.5c0,0,14-0.5,23,6c0,0-17.5-9-48.5,25c0,0,6-5,17-5
		c0,0-15.5,4.5-30.5,27c0,0,6-2.5,10.5-2.5c-3.2,0.3-27.5,22.5-34,48.5s-6.5,86.6-3,104c-0.4-2.2,13,25.2,13.2,32.8
		c-1.9-25.9,12.8-64.3,12.8-90.3c0-46.5,33.7-56.9,73.2-59c45.3-2.5,91.3,15.5,114.1,13c6.7,0,21.3,17.5,27.2,45s9,59.7,7.4,78.8
		c0.2-2.8,12.1-79.5,3.1-110.7c0,0,5,2.3,8,15.3c-0.7-2.7-3.3-21-11.1-21.5c0,0,5.1-6,5.6-18C566.7,198.3,561.2,206.4,555.3,209.1z"
		/>
	<path class="st21" d="M548.2,191.3c0,0-6.5-36-19.5-51C528.7,140.3,550.2,154.8,548.2,191.3z"/>
	<path class="st22" d="M428.2,329c0,0-16.2-21.9-38.5-5.2C389.7,323.8,404.7,336.3,428.2,329z"/>
	<path class="st22" d="M490.7,325.7c0,0,7.5-11.5,23-9.9c11.5,1,12.8,8.7,12.8,8.7S510.4,333.5,490.7,325.7z"/>
	<circle class="st20" cx="406.5" cy="323.1" r="2.8"/>
	<circle class="st20" cx="508.6" cy="321" r="2.8"/>
	<circle class="st15" cx="500.7" cy="321.9" r="1.7"/>
	<circle class="st15" cx="397.2" cy="323.3" r="1.7"/>
</g>
</svg>
